/* XPM */
static char * sesam_viewer_xpm[] = {
"32 32 764 2",
"  	c None",
". 	c #C2C0CA",
"+ 	c #93929C",
"@ 	c #878592",
"# 	c #9694A0",
"$ 	c #167D51",
"% 	c #117B51",
"& 	c #117F52",
"* 	c #0D8151",
"= 	c #0A8251",
"- 	c #0B8150",
"; 	c #0C7D4D",
"> 	c #0D7F50",
", 	c #0B8051",
"' 	c #0B7F4F",
") 	c #0A7E4E",
"! 	c #0C7D51",
"~ 	c #0C7D52",
"{ 	c #0B7E52",
"] 	c #0B8154",
"^ 	c #0A8154",
"/ 	c #0B7F50",
"( 	c #0E7E4F",
"_ 	c #0D7E4F",
": 	c #0E7F50",
"< 	c #0F7F51",
"[ 	c #0D7D4F",
"} 	c #127951",
"| 	c #197752",
"1 	c #4F9379",
"2 	c #949399",
"3 	c #5B596B",
"4 	c #89899B",
"5 	c #15935C",
"6 	c #168E5C",
"7 	c #249464",
"8 	c #269262",
"9 	c #158754",
"0 	c #168755",
"a 	c #42AF7E",
"b 	c #299465",
"c 	c #218E61",
"d 	c #1F8C5F",
"e 	c #178457",
"f 	c #1C895C",
"g 	c #249164",
"h 	c #1C895D",
"i 	c #1D8B60",
"j 	c #1F8E62",
"k 	c #1C8E61",
"l 	c #118557",
"m 	c #219162",
"n 	c #1E8858",
"o 	c #2A9464",
"p 	c #2E9868",
"q 	c #1D8757",
"r 	c #34A372",
"s 	c #128F5C",
"t 	c #0A8655",
"u 	c #368666",
"v 	c #8B8E96",
"w 	c #5C6074",
"x 	c #4AA87D",
"y 	c #65BA95",
"z 	c #49A47C",
"A 	c #5BBA8F",
"B 	c #50B287",
"C 	c #339669",
"D 	c #4DAC81",
"E 	c #5CB88F",
"F 	c #5FBD95",
"G 	c #5EBD95",
"H 	c #67B095",
"I 	c #80B5A3",
"J 	c #55AD88",
"K 	c #63C198",
"L 	c #51B188",
"M 	c #50B288",
"N 	c #62C69B",
"O 	c #2E8F66",
"P 	c #9BC9BB",
"Q 	c #96BBB4",
"R 	c #B8C4CF",
"S 	c #B0BDC9",
"T 	c #A3B1B6",
"U 	c #8CADA4",
"V 	c #7BC9A9",
"W 	c #279C6C",
"X 	c #3C8566",
"Y 	c #636876",
"Z 	c #1D8158",
"` 	c #18865D",
" .	c #0C8254",
"..	c #13895B",
"+.	c #0E8758",
"@.	c #0B8555",
"#.	c #10895A",
"$.	c #12895A",
"%.	c #128857",
"&.	c #60A494",
"*.	c #828F9C",
"=.	c #428E74",
"-.	c #108858",
";.	c #138856",
">.	c #0D8351",
",.	c #108654",
"'.	c #198C5C",
").	c #87ADA6",
"!.	c #9FA7B8",
"~.	c #788598",
"{.	c #778293",
"].	c #727887",
"^.	c #575964",
"/.	c #4A4957",
"(.	c #7C808D",
"_.	c #7CAC9E",
":.	c #56957C",
"<.	c #AFB4C5",
"[.	c #474956",
"}.	c #06845A",
"|.	c #008A59",
"1.	c #07855B",
"2.	c #09845B",
"3.	c #078658",
"4.	c #068555",
"5.	c #0A8153",
"6.	c #0A8354",
"7.	c #399879",
"8.	c #7A849A",
"9.	c #2B8667",
"0.	c #098350",
"a.	c #078657",
"b.	c #0A854F",
"c.	c #108347",
"d.	c #038660",
"e.	c #549F83",
"f.	c #A4A7B3",
"g.	c #4D5054",
"h.	c #48484A",
"i.	c #474243",
"j.	c #544D4A",
"k.	c #49433D",
"l.	c #3C3837",
"m.	c #56525E",
"n.	c #666776",
"o.	c #878EA1",
"p.	c #858D9F",
"q.	c #8D95A2",
"r.	c #878CA1",
"s.	c #5E6076",
"t.	c #4F4F59",
"u.	c #038359",
"v.	c #028954",
"w.	c #09854E",
"x.	c #07874B",
"y.	c #078849",
"z.	c #048849",
"A.	c #018C52",
"B.	c #018C55",
"C.	c #6DA69C",
"D.	c #767A96",
"E.	c #188C5E",
"F.	c #0A754C",
"G.	c #05884F",
"H.	c #098B4B",
"I.	c #319B51",
"J.	c #4C9D86",
"K.	c #A3B0B4",
"L.	c #73777B",
"M.	c #6A635C",
"N.	c #776B5E",
"O.	c #64584D",
"P.	c #82776D",
"Q.	c #7C7167",
"R.	c #544B41",
"S.	c #463E3E",
"T.	c #3D383E",
"U.	c #423E49",
"V.	c #54535E",
"W.	c #58595F",
"X.	c #4E4D5B",
"Y.	c #5B5963",
"Z.	c #0A8353",
"`.	c #0A8747",
" +	c #3B7A2E",
".+	c #527523",
"++	c #557326",
"@+	c #407835",
"#+	c #177F47",
"$+	c #038952",
"%+	c #9CACB0",
"&+	c #717A91",
"*+	c #228F66",
"=+	c #17652D",
"-+	c #36903F",
";+	c #40965F",
">+	c #A0BAA9",
",+	c #B5C1CD",
"'+	c #6E7074",
")+	c #676261",
"!+	c #6B6059",
"~+	c #7F7166",
"{+	c #675B50",
"]+	c #756B60",
"^+	c #6F675D",
"/+	c #5F564B",
"(+	c #3E362B",
"_+	c #251F16",
":+	c #2D241D",
"<+	c #33291B",
"[+	c #3F372A",
"}+	c #585149",
"|+	c #A6A4A0",
"1+	c #0B804E",
"2+	c #10833E",
"3+	c #5B7817",
"4+	c #7E6E02",
"5+	c #806A04",
"6+	c #64751A",
"7+	c #237C35",
"8+	c #028A4D",
"9+	c #899D9A",
"0+	c #4D5B76",
"a+	c #6F8C95",
"b+	c #789F82",
"c+	c #98AD9E",
"d+	c #A0B1BF",
"e+	c #8F9DAD",
"f+	c #62656E",
"g+	c #3A3739",
"h+	c #413A36",
"i+	c #62584E",
"j+	c #7B6F62",
"k+	c #6A5D50",
"l+	c #68594D",
"m+	c #665C50",
"n+	c #645C52",
"o+	c #443C32",
"p+	c #2A2014",
"q+	c #2D1F15",
"r+	c #36291C",
"s+	c #51463B",
"t+	c #746B63",
"u+	c #098053",
"v+	c #128542",
"w+	c #5D7A19",
"x+	c #7C6F01",
"y+	c #7D6E00",
"z+	c #617A15",
"A+	c #1E7F36",
"B+	c #018A55",
"C+	c #429377",
"D+	c #4C4B58",
"E+	c #4D5671",
"F+	c #62718D",
"G+	c #646D85",
"H+	c #5D5F6E",
"I+	c #4F4A47",
"J+	c #2F291F",
"K+	c #100E09",
"L+	c #312B25",
"M+	c #53493F",
"N+	c #685F50",
"O+	c #5B4C3F",
"P+	c #544033",
"Q+	c #524537",
"R+	c #534C42",
"S+	c #35312A",
"T+	c #47413B",
"U+	c #3E3631",
"V+	c #524D48",
"W+	c #898581",
"X+	c #068359",
"Y+	c #0C8548",
"Z+	c #46782C",
"`+	c #5E7318",
" @	c #5F7515",
".@	c #457B27",
"+@	c #147E44",
"@@	c #01885B",
"#@	c #068554",
"$@	c #448E70",
"%@	c #56686B",
"&@	c #465456",
"*@	c #545156",
"=@	c #372E26",
"-@	c #2E2419",
";@	c #17130F",
">@	c #0B0A08",
",@	c #292621",
"'@	c #37312D",
")@	c #4E4944",
"!@	c #312822",
"~@	c #493B32",
"{@	c #483C32",
"]@	c #5F574E",
"^@	c #4D463C",
"/@	c #6E7068",
"(@	c #6F7F76",
"_@	c #018A54",
":@	c #028851",
"<@	c #09814E",
"[@	c #09824D",
"}@	c #08844E",
"|@	c #068650",
"1@	c #038551",
"2@	c #028653",
"3@	c #018450",
"4@	c #048752",
"5@	c #028652",
"6@	c #068553",
"7@	c #596353",
"8@	c #40372A",
"9@	c #2D271E",
"0@	c #211B15",
"a@	c #27241F",
"b@	c #2C2824",
"c@	c #29221F",
"d@	c #5D534A",
"e@	c #594E3E",
"f@	c #6F625B",
"g@	c #736459",
"h@	c #8B8277",
"i@	c #A69D94",
"j@	c #60997D",
"k@	c #318C65",
"l@	c #008B54",
"m@	c #008852",
"n@	c #018953",
"o@	c #018852",
"p@	c #008650",
"q@	c #018651",
"r@	c #018650",
"s@	c #1B9060",
"t@	c #517B61",
"u@	c #585A51",
"v@	c #4D534A",
"w@	c #3C4138",
"x@	c #4C594E",
"y@	c #577364",
"z@	c #413A37",
"A@	c #8E8177",
"B@	c #736853",
"C@	c #6F635B",
"D@	c #68594B",
"E@	c #94887E",
"F@	c #A49C93",
"G@	c #63997E",
"H@	c #318A63",
"I@	c #018652",
"J@	c #048350",
"K@	c #04824D",
"L@	c #09824F",
"M@	c #0A804E",
"N@	c #0B8451",
"O@	c #07824F",
"P@	c #058350",
"Q@	c #048250",
"R@	c #04804D",
"S@	c #068351",
"T@	c #05824F",
"U@	c #0B8252",
"V@	c #077D4D",
"W@	c #078351",
"X@	c #058551",
"Y@	c #1B8A5D",
"Z@	c #58524F",
"`@	c #857B74",
" #	c #807465",
".#	c #6E5F53",
"+#	c #594B3A",
"@#	c #897E73",
"##	c #857D76",
"$#	c #616362",
"%#	c #65887C",
"&#	c #198B5F",
"*#	c #058451",
"=#	c #097F4D",
"-#	c #107748",
";#	c #137548",
">#	c #0B6A3C",
",#	c #0B7444",
"'#	c #036F3D",
")#	c #027040",
"!#	c #037546",
"~#	c #037344",
"{#	c #077A4A",
"]#	c #046F40",
"^#	c #067244",
"/#	c #046D3F",
"(#	c #047344",
"_#	c #057F4E",
":#	c #289167",
"<#	c #4E4B49",
"[#	c #57514C",
"}#	c #8D8273",
"|#	c #685647",
"1#	c #5B4D3A",
"2#	c #7D7366",
"3#	c #9B9488",
"4#	c #565851",
"5#	c #1F2426",
"6#	c #73C8A8",
"7#	c #088451",
"8#	c #037B46",
"9#	c #056839",
"0#	c #056336",
"a#	c #056535",
"b#	c #0A824C",
"c#	c #04864E",
"d#	c #048451",
"e#	c #068552",
"f#	c #048551",
"g#	c #0E8B59",
"h#	c #5E7B70",
"i#	c #222120",
"j#	c #665D57",
"k#	c #A49A8B",
"l#	c #6D614F",
"m#	c #615341",
"n#	c #AFA696",
"o#	c #ACA994",
"p#	c #B3AE9A",
"q#	c #242828",
"r#	c #353E3A",
"s#	c #41AC81",
"t#	c #088653",
"u#	c #097A49",
"v#	c #0C6D41",
"w#	c #0E6B40",
"x#	c #0F7347",
"y#	c #0A7546",
"z#	c #057343",
"A#	c #047C4D",
"B#	c #018452",
"C#	c #008753",
"D#	c #239266",
"E#	c #3F9574",
"F#	c #4C655D",
"G#	c #3E4344",
"H#	c #1A1E1D",
"I#	c #1F201E",
"J#	c #41443E",
"K#	c #9B9890",
"L#	c #968C82",
"M#	c #A1968C",
"N#	c #ABA195",
"O#	c #9F9A8C",
"P#	c #908376",
"Q#	c #282A25",
"R#	c #141D19",
"S#	c #222C35",
"T#	c #455F6F",
"U#	c #607585",
"V#	c #99A7B3",
"W#	c #028651",
"X#	c #018750",
"Y#	c #06814E",
"Z#	c #087546",
"`#	c #077344",
" $	c #0B7849",
".$	c #077142",
"+$	c #08784A",
"@$	c #078353",
"#$	c #028552",
"$$	c #018552",
"%$	c #108A5B",
"&$	c #455755",
"*$	c #2A3437",
"=$	c #1B2629",
"-$	c #151F20",
";$	c #161C1B",
">$	c #1D211E",
",$	c #44403A",
"'$	c #6E6A60",
")$	c #999587",
"!$	c #8F8879",
"~$	c #BCB19C",
"{$	c #A29682",
"]$	c #7F4133",
"^$	c #934538",
"/$	c #1F1E1E",
"($	c #1E2B2F",
"_$	c #3E5C73",
":$	c #33526D",
"<$	c #37536B",
"[$	c #0A8254",
"}$	c #0C8656",
"|$	c #068752",
"1$	c #058851",
"2$	c #058650",
"3$	c #04854E",
"4$	c #068651",
"5$	c #098451",
"6$	c #068652",
"7$	c #038751",
"8$	c #2A9369",
"9$	c #323B40",
"0$	c #243844",
"a$	c #182327",
"b$	c #1A2020",
"c$	c #141D1D",
"d$	c #151B18",
"e$	c #382722",
"f$	c #403828",
"g$	c #4E4733",
"h$	c #93876C",
"i$	c #B4AC93",
"j$	c #7C3F36",
"k$	c #9D4435",
"l$	c #904138",
"m$	c #171F20",
"n$	c #1C1D19",
"o$	c #284458",
"p$	c #30556B",
"q$	c #365470",
"r$	c #45896D",
"s$	c #498B70",
"t$	c #438E6E",
"u$	c #3F8F6D",
"v$	c #3F906D",
"w$	c #3E8F6D",
"x$	c #3F8F6C",
"y$	c #408F6D",
"z$	c #3E906D",
"A$	c #3D906D",
"B$	c #61A187",
"C$	c #31373A",
"D$	c #1E2C32",
"E$	c #222E34",
"F$	c #171C18",
"G$	c #141C1B",
"H$	c #1B1C18",
"I$	c #463D36",
"J$	c #413833",
"K$	c #402F21",
"L$	c #372718",
"M$	c #725F4C",
"N$	c #784835",
"O$	c #9F4435",
"P$	c #80413C",
"Q$	c #23394B",
"R$	c #222D3D",
"S$	c #2C425C",
"T$	c #324A5F",
"U$	c #375368",
"V$	c #A4A6A8",
"W$	c #21292D",
"X$	c #172023",
"Y$	c #191F20",
"Z$	c #141D1A",
"`$	c #2B2521",
" %	c #4E3F31",
".%	c #2E231B",
"+%	c #534733",
"@%	c #3B2819",
"#%	c #6B5E4F",
"$%	c #C8BA9E",
"%%	c #B5A38A",
"&%	c #AD9F8E",
"*%	c #31475C",
"=%	c #283D54",
"-%	c #283A51",
";%	c #233246",
">%	c #324C68",
",%	c #273136",
"'%	c #212E30",
")%	c #1A1F1E",
"!%	c #171B1D",
"~%	c #1A201E",
"{%	c #2D231B",
"]%	c #4F3E2F",
"^%	c #51402F",
"/%	c #4F3E2D",
"(%	c #2A1A0C",
"_%	c #A59B84",
":%	c #D8D2B4",
"<%	c #E8E2C8",
"[%	c #BDC2AB",
"}%	c #31485D",
"|%	c #2F516B",
"1%	c #365570",
"2%	c #2B4159",
"3%	c #2D485E",
"4%	c #2F3C42",
"5%	c #375566",
"6%	c #233C4D",
"7%	c #1E282C",
"8%	c #757469",
"9%	c #393228",
"0%	c #463B32",
"a%	c #5B4D41",
"b%	c #362619",
"c%	c #504A3C",
"d%	c #BBB694",
"e%	c #D4CEAD",
"f%	c #EAE2C7",
"g%	c #C6C8B0",
"h%	c #304159",
"i%	c #365270",
"j%	c #2B4564",
"k%	c #2E4A63",
"l%	c #273D51",
"m%	c #595B5B",
"n%	c #181F26",
"o%	c #21313D",
"p%	c #2A3947",
"q%	c #767875",
"r%	c #A19C8C",
"s%	c #554E42",
"t%	c #241B11",
"u%	c #2C2928",
"v%	c #1D2027",
"w%	c #6A6A64",
"x%	c #AEAA86",
"y%	c #CAC5A1",
"z%	c #E4DEC0",
"A%	c #C1C5B0",
"B%	c #273E57",
"C%	c #2E5272",
"D%	c #244563",
"E%	c #284B64",
"F%	c #2A3B50",
"G%	c #1C232A",
"H%	c #1E2D37",
"I%	c #2F3C46",
"J%	c #A4A39A",
"K%	c #B6B0A0",
"L%	c #665F4E",
"M%	c #463C30",
"N%	c #52514E",
"O%	c #1E2530",
"P%	c #767870",
"Q%	c #D5CFB3",
"R%	c #DCD8B9",
"S%	c #DCD9BA",
"T%	c #AFB5A3",
"U%	c #213551",
"V%	c #315175",
"W%	c #264362",
"X%	c #284965",
"Y%	c #28364E",
"Z%	c #4F5654",
"`%	c #1C282F",
" &	c #2F4553",
".&	c #3B4B54",
"+&	c #B9B8AC",
"@&	c #CCC7B4",
"#&	c #88816F",
"$&	c #7B7062",
"%&	c #9B998B",
"&&	c #232834",
"*&	c #797B73",
"=&	c #D9D3B7",
"-&	c #DEDABA",
";&	c #E1DDBC",
">&	c #A6AD98",
",&	c #1B2E47",
"'&	c #254264",
")&	c #2A4462",
"!&	c #385466",
"~&	c #253640",
"{&	c #515655",
"]&	c #3C5256",
"^&	c #4E6C7C",
"/&	c #202C38",
"(&	c #949486",
"_&	c #CDC9B5",
":&	c #787160",
"<&	c #92917F",
"[&	c #4C4F4F",
"}&	c #1D242F",
"|&	c #75786F",
"1&	c #D8D0B6",
"2&	c #DED7B8",
"3&	c #DCD7BC",
"4&	c #ABB19D",
"5&	c #1B2F45",
"6&	c #203A5D",
"7&	c #1F3752",
"8&	c #48646D",
"9&	c #435664",
"0&	c #5B6160",
"a&	c #394654",
"b&	c #283B46",
"c&	c #162021",
"d&	c #4A4D46",
"e&	c #B3B5A3",
"f&	c #959481",
"g&	c #4C4C4C",
"h&	c #1F232B",
"i&	c #1C242E",
"j&	c #3E4142",
"k&	c #B6B39B",
"l&	c #E4DDBE",
"m&	c #D5D3BA",
"n&	c #A2AC9D",
"o&	c #1D2F42",
"p&	c #203D60",
"q&	c #1F344B",
"r&	c #50717C",
"s&	c #566E7C",
"t&	c #495250",
"u&	c #1C1E27",
"v&	c #1C2328",
"w&	c #17201E",
"x&	c #161D1D",
"y&	c #2F3531",
"z&	c #7C8176",
"A&	c #363837",
"B&	c #1A1F1D",
"C&	c #222935",
"D&	c #202331",
"E&	c #A5A794",
"F&	c #D6D0B1",
"G&	c #BEC0A9",
"H&	c #ACB9B1",
"I&	c #233142",
"J&	c #244467",
"K&	c #213448",
"L&	c #638499",
"M&	c #7A7E7C",
"N&	c #1A2025",
"O&	c #1B2025",
"P&	c #191E21",
"Q&	c #181E1F",
"R&	c #151B1B",
"S&	c #161C1A",
"T&	c #1F232D",
"U&	c #1E2230",
"V&	c #979A8C",
"W&	c #C9CFB3",
"X&	c #C3C3B1",
"Y&	c #354553",
"Z&	c #264666",
"`&	c #2D3F53",
" *	c #6F899E",
".*	c #8B908E",
"+*	c #192024",
"@*	c #1B2121",
"#*	c #191F1E",
"$*	c #161C1C",
"%*	c #151B1D",
"&*	c #151A19",
"**	c #171C21",
"=*	c #1F212F",
"-*	c #85867D",
";*	c #C5C6B2",
">*	c #C2C1B6",
",*	c #6C7279",
"'*	c #2B4054",
")*	c #5E6976",
"!*	c #6B7074",
"~*	c #434A4C",
"{*	c #171E1F",
"]*	c #191B1D",
"^*	c #191D1F",
"/*	c #1B2027",
"(*	c #141F20",
"_*	c #1D2630",
":*	c #3E464F",
"<*	c #757980",
"[*	c #2D4353",
"}*	c #6C7B85",
"                                                      . + @ #   ",
"$ % & * = - ; > , , ' ' ) ! ~ { ] ^ / ( _ : < [ } | 1     2 3 4 ",
"5 6 7 8 9 0 a b c d e f g h i j k l m n o p q r s t u       v w ",
"x y z A B C D E F G H I J K L M N O P Q R S T U V W X         Y ",
"Z `  ...+.@.#.$.%.&.*.=.-.;.>.,.'.).!.~.{.].^./.(._.:.      <.[.",
"}.|.1.2.3.4.5.6.7.8.9.0.a.b.c.d.e.f.g.h.i.j.k.l.m.n.o.p.q.r.s.t.",
"u.v.w.x.y.z.A.B.C.D.E.F.G.H.I.J.K.L.M.N.O.P.Q.R.S.T.U.V.W.X.Y.  ",
"Z.`. +.+++@+#+$+%+&+*+=+-+;+>+,+'+)+!+~+{+]+^+/+(+_+:+<+[+}+|+  ",
"1+2+3+4+5+6+7+8+9+0+a+b+c+d+e+f+g+h+i+j+k+l+m+n+o+p+q+r+s+t+    ",
"u+v+w+x+y+z+A+B+C+D+E+F+G+H+I+J+K+L+M+N+O+P+Q+R+S+T+U+V+W+      ",
"X+Y+Z+`+ @.@+@@@#@$@%@&@*@=@-@;@>@,@'@)@!@~@{@]@^@/@(@          ",
"_@:@<@[@}@|@1@2@3@4@5@6@7@8@9@0@a@b@c@d@e@f@g@h@i@j@k@          ",
"l@4@1@m@n@o@p@q@p@m@r@s@t@u@v@w@x@y@z@A@B@C@D@E@F@G@H@          ",
"I@J@K@K@L@M@N@O@P@Q@R@S@T@U@V@W@X@Y@Z@`@ #.#+#@###$#%#          ",
"&#*#=#-#;#>#,#'#)#!#~#{#]#^#/#(#_#:#<#[#}#|#1#2#3#4#5#          ",
"6#7#8#9#0#a#b#c#d#e#*#J@*#*#*#f#g#h#i#j#k#l#m#n#o#p#q#r#        ",
"s#t#u#v#w#x#y#z#A#B#C#C#C#D#E#F#G#H#I#J#K#L#M#N#O#P#Q#R#S#T#U#V#",
"W#X#Y#Z#`#Z# $.$+$@$#$$$%$&$*$=$-$;$>$,$'$)$!$~${$]$^$/$($_$:$<$",
"[$}$|$1$2$3$1$4$5$6$4@7$8$9$0$a$b$c$d$e$f$g$h$i$j$k$l$m$n$o$p$q$",
"r$s$t$u$v$u$u$w$x$y$z$A$B$C$D$E$F$G$H$I$J$K$L$M$N$O$P$Q$R$S$T$U$",
"                        V$W$X$Y$c$Z$`$ %.%+%@%#%$%%%&%*%=%-%;%>%",
"                          ,%'%)%!%~%{%]%^%/%(%_%:%<%[%}%|%1%2%3%",
"                          4%5%6%7%8%9%0%a%b%c%d%e%f%g%h%i%j%k%l%",
"                        m%n%o%p%q%r%s%t%u%v%w%x%y%z%A%B%C%D%E%F%",
"                          G%H%I%J%K%L%M%N%O%P%Q%R%S%T%U%V%W%X%Y%",
"                        Z%`% &.&+&@&#&$&%&&&*&=&-&;&>&,&'&)&!&~&",
"                        {&]&^&/&(&_&:&<&[&}&|&1&2&3&4&5&6&7&8&9&",
"                        0&a&b&c&d&e&f&g&h&i&j&k&l&m&n&o&p&q&r&s&",
"                        t&u&v&w&x&y&z&A&B&C&D&E&F&G&H&I&J&K&L&  ",
"                        M&N&O&P&Q&R&b$S&S&T&U&V&W&X&  Y&Z&`& *  ",
"                        .*+*P&@*#*$*R&%*&***=*-*;*>*  ,*'*)*    ",
"                          !*~*m${*]*^*/*(*Q&_*:*<*      [*}*    "};
